<mxfile host="app.diagrams.net" agent="Mozilla/5.0 (Windows NT 10.0; Win64; x64) AppleWebKit/537.36 (KHTML, like Gecko) Chrome/129.0.0.0 Safari/537.36" version="24.7.17">
  <diagram name="Page-1" id="bAdE6E-ebhN8LSf5a-Ir">
    <mxGraphModel dx="1050" dy="618" grid="1" gridSize="10" guides="1" tooltips="1" connect="1" arrows="1" fold="1" page="1" pageScale="1" pageWidth="850" pageHeight="1100" math="0" shadow="0">
      <root>
        <mxCell id="0" />
        <mxCell id="1" parent="0" />
        <mxCell id="494KCF8BVKVMXKI5Pt0m-14" value="" style="rounded=0;whiteSpace=wrap;html=1;" vertex="1" parent="1">
          <mxGeometry x="240" y="60" width="600" height="290" as="geometry" />
        </mxCell>
        <mxCell id="494KCF8BVKVMXKI5Pt0m-3" style="edgeStyle=orthogonalEdgeStyle;rounded=0;orthogonalLoop=1;jettySize=auto;html=1;" edge="1" parent="1" source="494KCF8BVKVMXKI5Pt0m-1" target="494KCF8BVKVMXKI5Pt0m-2">
          <mxGeometry relative="1" as="geometry" />
        </mxCell>
        <mxCell id="494KCF8BVKVMXKI5Pt0m-1" value="Jane System" style="shape=image;verticalLabelPosition=bottom;verticalAlign=top;imageAspect=0;aspect=fixed;image=data:image/png,iVBORw0KGgoAAAANSUhEUgAAAPIAAADQCAMAAAAK0syrAAAAYFBMVEUAwcr///8AvccAvMYAwsv8///1/f3j9/jq+frf9vfw+/zm+PnN8PKF2+DZ9PXC7O9o09lb0Nek5OczyNCt5uqb4eW46eyn5OhTztVv1NrQ8fON3OF4191Ey9OG2+CW4OTAlm6BAAAOnElEQVR4nO2d6ZaiMBCFNYCNG2jjNiL6/m85hCWpqhRhVeOx75+Z7lbMR5LaEuJs/nWavbsBr9cf8jfoD/kb9If8DfpD/gb9IX+D/pA/WovlJj6n2216PG3C5pd9OHKwWEXx6Xf7b5/4whO5Zrnyfzx/f4z493wichD+RKfzcbvPEl/i5ZwFKZEQfsp19ucgh9H19Jve8u4sujGH5Dgp9m5lXMhp5GARXuPTcfvvksw8NWz7SZzpVR1EXoXL+HBOd5d8ejYP2+7Me3J9V5AXyyg+P+47+/QcpiRAH/VW5NKr3HaqOyfkhMrQp74aOVhJr3Le7qQZGjg9e0vcXo+8ksP2eG/xKk9k3rwGeRVt4sqrPHXYdlHyNGQ+GHJAIp4UOZ+ewSpcBJssm8SrPEWXKZDDaHM6prfssgoqJ+C9m8sibzEMOQhkNPTIo6HK2oqZB4yh/24ui8DI7oa8WB50NATNkHiAV+3fiNQq3dAOyNc0mzUlK3f4wu3LObpL/OuMvLzbbNEOvfbgntXS0m7Kjny9WE1Sgl+9+Xzk1c7OIK749WuXkf0uyMc2ght9x4cjB5dWgIC+x2Uv1T6w1+3Nfxhvuryg6UOlE8gG5GX7NYRZVfrn7sgG+SOP/NPhIon5tsfTWz5cLaHIosOkFDvzfQ47ZnGyI2ddLrI13xc7jKzr+Bzyo1PLGeQfd5E97V4Y5GWnhoOgVWnlLrJ2yxxyp2GNku5agbuO2Voi6DwhTeR58tRmjxGIFM2Gd222YBb2Og6Q10v8WpA7d7I4msgtecj7ZC33de+ojL51Pk+f2OpREj/NyD0SQM9cvG1Nvt4lAVIgityj0czIdjb8spXu+9hcM8p2NvyCC64EOezTZrTSUyhyFRmWJQnyqVeb6WJ1x8Dt9RKHZuR+dVmxJsiuVr9sK4896xopQV48p8WjJaBzIch9g2Q6sp/S4AkEy3S40YueK2kg8R52y14k5Fswcm+LS9MpN5FxBWckMq35OZpKoWIsRu7tZJD1n7uaSuH5N7aXSdHPzfVWnOeORJ75eMnCzUo2nn5jkclkdnSJGbUR/3Ttj4zjbDeRbbv7BiDjjbD3Z7R4tPASKUYesCiOL+dkWYQk9qORcTDiJnKM2jga2UcXcHIhTiynRfbQBY5PaPFoCdt+7AGFHOzmnaz3kYLVeGTkpX5dRCbFm/HIKH51EpmskY5GxlmKi8g09RmPjPY0OomMfdQEAxvlUi6aL0FWVcb3MgpgXUT2F4hxAmTkAlwMReiiCkbuV7kvhcIvFwNO+9NwQ5DRFVzMpGixfTwyCucczJepjyLIgxZLoXW4Td7i0TI2eEyADH2Ag7Uv6qMI8nnIwIZrcQ5WOAUhJshDgie4DcPFOrax8D8xsnurFcJ4NgAjDwmeELKDa1LGTvkJkGGZxUHrRZIKijwkXoTIDi6pm5sQJ0AGA7vX7prXSBgPvWDkISEyRHZwe4w/p5oWuf9qx9Nl7qHGyEOyAhiKDEpLnivDR02ADANO9+pA5uExBHlQIgSWW99VIRAz3+fPPTB91ATI0CQ2ZxVPPIpBiNsmb8P6l/2juZ14gl4G7+dDbCEujziKTrenHMsgdnX2usiY65PCl4E8KN0F7+dCbLE/1R8bpNMzw8nKPM7CPLM3Hhk4PuYpOpGinRXTm3S0PmSWK42dtVMgg/toPCcltjT2sada/U8k+cGXN/5OC18m8oBOAL6e7K4R2XJOZbMW4hat4l6f7dOtwtR+GoWvKZDhU3F42MIHdZQsNQS/GKN9lrh9wxzT8JGeHTAJMlyTwm6ZOyDREpH6q9abQlUTrw7bapmIVrKMHeOTIIPZAh+TSoDZCg+32+O02cSWTQZqGaWzo6yz1p+9J2o2I+Fnbjv+3YACJXQSoIMybbeiXRGFqGCEj5KUHepqQr0qrvotrx6y94vxURMgw+fMNLH63WqPwy6x/2WGLliY71gkrQ+uqQamb9z04kXM47cEedeLtryqnrJrtYFdE//SOFPaKMNTif6HK2WIuE6YaJeZR0RMgAyeiVOBgNrLGuxJG0obZSRcYPx13EZaTYT6St4Vt6B+FX0qwEQeUHkHlXFlnOq7ENLurLyK0TJgV0kyJmYZN/mrE6hUFaa6Z4Zb5rzGaGQQb1YfqGa3eVLHmgyHqmEwXkB3SWRyHlwTExq/uHK/RrXRM5MKijzgLBQQfJWzUNReyyiEqXt+IAYNtCCED7SocUlHS3WT1HUqr2y4KLPwNQWyNjxB+YH1vAzpKz01scj4g4kHbHWizASdCT68x7M6QzQTKebwAIrcf0kJuOUysqoDhMDoGWU9cdNwGKzfJS7atZNicXWpOr71NubtKmUWvqZA1m65sJ5qWNMBA1wkNtioJ7S9RsOdpGiVuataW+89Ns+7YKN8gtx/FQ0Y22K41v6J3nGhXTUxMsjCqNBLoC155FnK8lpVGKB8OnWIbOFrAmTQYvnmepQah6qAnUjILXgoxQ/Ur3H/YGdddWt5V9W+M6b6IEg2PQ2yDiJWBVn1Az0sDHw4yg4FDo/qZtPuwQlSZfkzRLziWsf5qLHIYG+ftKp1J2/Is5MQAU5yelx3/TcaQeCTLKrop/ivMlBcqY9LKhqQRUO6wyDrAVhk59VMJmbQA3EfMr7k0IpFOVSNWgeJu8v7JN2+pzJXtpDI+iiCLC8tRHK7329MxMMh66koe6jKbn5wJ3twxQBOOXI8eRVa0N/SoKaaynKCqMHDb0u80wtxyEJc6hLsspPHUtGCtDx1eIXjZOwqdDosMsomDZtxNP2cerUquow9/W0FfPWIWZwxkWcZrBV1mNk6opNGtZ476GYR46vsNZPLzritHXMa+lfLI1c9wPg+9i6swabbY9BPHbZE6S6RPVHPLDj1PFJjrJvvmWFCPn49LsElWbAxQ9nFP5Fc56zBJsj4Acb2jW/goau9ntgwoDSigdLOiETVe09qbhyEzm8fF92JxCvTe8WXcg7ygPIOyLhI2r70Cmqm8qf6IxSySAzjG8r6vK9n2dED/60xw9x46jmDxy2JL0LOzpbrVOYRkgwyflH7XNbHw8GpXA9eMWMK5/PwmIKe/+dpR3Wv3XFxCKgOZdFo87AJ4Er9oqyID0Betp/FoH29rIiosHgpz5YW/tHwNgZ+3kXmGYBl2qkzLN3L+XWxFf5ntlGogld/5A6bwHRzMzTJwvR+xOsErFk6zbjyVL2Yp0xj4Bfn5+c3cReju8gM6hxYvaQTMprv7RVebZtWM8ZSaQUXz/xjUHyAMNatag79NPjq8e/f9hwbdsEw1WIGRtYP76NsyO1TWdmrIqbi1n9KXX3jCf6yi6WoWVUxOHdsHLkESaMTaDuOXqdeRs1qLyhryyPjfvNgqOqit2LC4agqqtMAGvqDDIKtXKHxegGz3L/BZGSTTwb+7TbkVmJdGC/yXLZonHdFdevgA1VX3VYSWEADwnfzGR5/cNon8itBEvKtaMX1mYP2TGQ89lp7WVeJyxHGRfEbkNT5h6Kx0QNaHRxgkuVac2hG+XtJTLqgUyYqbigburYgt85lPfAu5Gf94ciJCG+WJWTFBi3z07VYOurDnbye12CXSsWZZxkjFBlbklaLrVpbFZ9p5hJzaXvjRebccWEX2As/t4b5DwjOagQ1OhALcptf9pTTUGv3YDYvU79Txg2GX8hMJb9ueBCDch6TYEpd4TYr0/u1I7ctiCnzoIp0ebIrN50trodbN94Z7DGOWHqe+yk+pxmaD2aqnX/qEX+muSuZQ+41mbVPQlY2D5O8Pjv5VGc0nzXPXE742D2sTjtau2oc/ba0wp4v604e90BF1WGHnm8TfnotEr9gHafc6iRf+DKQSUhn62btobqdIG7R7fHYdZ4IsAl5/OHLryRj/8ocWc4hk+DPcsq//sKdSc4Bn+Ia5Ipc4trey/Nl45jVoY25LuKEmpMc21yW3b7nk2ZdeHVwo30hZlcyi8y8bEPDJXm5vSJevwOnk/jCl4EccKNhQ+y/yPSrjFVkZ9QcoZHtb7s9d3OC+J6VXwbniSSFUY2Dj3VWagjQTOSNx5boCq2j6xXbt8BdYm5XMo+cZ4wiaUj1DRl7nBxSs48ykGVcITI+2Sc6tX/w+9RclTKQ6/XOR0PhSCls/4qtd6rZR5nfaFAv1HrZ0ZKJ/wzZxvxSNbfd+JNOEoTM25gt3PPl2e0elmr2Ucy3k5zQ/jrh79PDNVqv8uAjCKPNId03PHfmlNhdyY3I5nbdwiFLOfTtwm1iV0cakR3+vqDOsqycsF+h5eoh/T3E7kq2ILv79ROd1Vj4akKeb97d5LFqWNuxIM+jd7d5pBoLX83IDRXWj1HT4owN2XwS5JPUsOOrBXk+P7+74cNl81Et37/c85s7nBH3qGMnZP7ZlY9QY+GrFTmPuJlqn/uyJBXtyLLa93nQNh/VAXk+X/wmn5NPFGoufHVEnssnkP8l3Aqgm7L6qK7IUqvN+V/yEfmjpfDVD7lQcP29+a5jW31Ub+SSOzrfkqZFThdkbf0g5EKL6HDL3Oxvq48agVwoyLmdM+e2wtd45FLRYevUOLf6qGmQpYLl6Z65wd2ws3Jy5JLbiXHuNe34egZyKcn9zv62VYGehCwVvI+7xXo9DbnQYvkOP2atDzwbuVR02r52frc8xfIC5ELLw/ZV9rxxj1ulVyFL5X7sBdyNO3RrvRK5UMH9xHHOPRmL9XLkUs+LW1qc8vxtyIV+Tull8sXqFg81fy+yVLA+3S8zbzpuW22z1LuRS63j9DLJOG/zyVJuIBeaYJyLNgcl5RByofCU7v3B49xazK3lGnKhME73A8a5aHr+DctJ5EJ5f2e9xrno1McuIxdad5/fneaxlOPIhdZynLfMbzHrYKtLfQJyIenHGvtb2PZ5UX0McqF1/DA2F+bxenJsD0C0Pgu5UBjLx6pq+btza1SN9YHIpcJok2vZeqiFqY9FHq4/5G/QH/I36A/5G/SH/A36Q/4G/SF/g/4DptHAVuPAdVkAAAAASUVORK5CYII=;" vertex="1" parent="1">
          <mxGeometry x="124.64" y="208.29000000000002" width="62.16" height="53.42" as="geometry" />
        </mxCell>
        <mxCell id="494KCF8BVKVMXKI5Pt0m-5" value="" style="edgeStyle=orthogonalEdgeStyle;rounded=0;orthogonalLoop=1;jettySize=auto;html=1;" edge="1" parent="1" source="494KCF8BVKVMXKI5Pt0m-2" target="494KCF8BVKVMXKI5Pt0m-4">
          <mxGeometry relative="1" as="geometry" />
        </mxCell>
        <mxCell id="494KCF8BVKVMXKI5Pt0m-2" value="Airflow&#xa;Extract Data" style="shape=image;verticalLabelPosition=bottom;verticalAlign=top;imageAspect=0;image=data:image/svg+xml,PHN2ZyB4bWxucz0iaHR0cDovL3d3dy53My5vcmcvMjAwMC9zdmciIHZpZXdCb3g9IjAgMCAxMjggMTI4Ij4mI3hhOzxwYXRoIGZpbGw9IiMwMTdjZWUiIGQ9Im0yLjU0NDEgMTI3IDYwLjgwOS02Mi4zMzJhMS4xMjQgMS4xMjQgMCAwIDAgMC4xMzU5LTEuNDM2OGMtMy42OTc3LTUuMTYyNS0xMC41MjEtNi4wNTc4LTEzLjA1LTkuNTI2OC03LjQ5MDMtMTAuMjc1LTkuMzkwOS0xNi4wOTItMTIuNjEtMTUuNzMxYTAuOTgzNzQgMC45ODM3NCAwIDAgMC0wLjU4NDY0IDAuMzA4NWwtMjEuOTY2IDIyLjUxOGMtMTIuNjM4IDEyLjk0NC0xNC40NTQgNDEuNDc1LTE0Ljc4MiA2NS4zNjdhMS4xOTA4IDEuMTkwOCAwIDAgMCAyLjA0NzMgMC44MzI3M3oiLz4mI3hhOzxwYXRoIGZpbGw9IiMwMGFkNDYiIGQ9Im0xMjYuOTkgMTI1LjQ2LTYyLjMzMi02MC44MTNhMS4xMjQgMS4xMjQgMCAwIDAtMS40Mzg5LTAuMTM1OWMtNS4xNjI1IDMuNjk5OC02LjA1NzggMTAuNTIxLTkuNTI2OCAxMy4wNS0xMC4yNzUgNy40OTAzLTE2LjA5MiA5LjM5MDktMTUuNzMxIDEyLjYxYTAuOTgzNzQgMC45ODM3NCAwIDAgMCAwLjMwODUgMC41ODI0OGwyMi41MTggMjEuOTY2YzEyLjk0NCAxMi42MzggNDEuNDc1IDE0LjQ1NCA2NS4zNjcgMTQuNzgyYTEuMTkwOCAxLjE5MDggMCAwIDAgMC44MzQ4OS0yLjA0MDh6Ii8+JiN4YTs8cGF0aCBmaWxsPSIjMDRkNjU5IiBkPSJtNjAuNzkyIDExMi43MmMtNy4wNzYtNi45MDM1LTEwLjM1NS0yMC41NTkgMy4yMDU4LTQ4LjcxOS0yMi4wNDYgOS44NTI1LTI5Ljc3MSAyMi44MDMtMjUuOTcyIDI2LjUxMXoiLz4mI3hhOzxwYXRoIGZpbGw9IiMwMGM3ZDQiIGQ9Im0xMjUuNDUgMS4wMTEzLTYwLjgwNyA2Mi4zMzJhMS4xMjE4IDEuMTIxOCAwIDAgMC0wLjEzNTkgMS40MzY4YzMuNjk5OCA1LjE2MjUgMTAuNTE5IDYuMDU3OCAxMy4wNSA5LjUyNjggNy40OTAzIDEwLjI3NSA5LjM5MyAxNi4wOTIgMTIuNjEgMTUuNzMxYTAuOTc5NDMgMC45Nzk0MyAwIDAgMCAwLjU4NDY0LTAuMzA4NWwyMS45NjYtMjIuNTE4YzEyLjYzOC0xMi45NDQgMTQuNDU0LTQxLjQ3NSAxNC43ODItNjUuMzY3YTEuMTkzIDEuMTkzIDAgMCAwLTIuMDQ5NS0wLjgzMjczeiIvPiYjeGE7PHBhdGggZmlsbD0iIzExZTFlZSIgZD0ibTExMi43MyA2Ny4yMTFjLTYuOTAzNSA3LjA3Ni0yMC41NTkgMTAuMzU1LTQ4LjcyMS0zLjIwNTggOS44NTI1IDIyLjA0NiAyMi44MDMgMjkuNzcxIDI2LjUxMSAyNS45NzJ6Ii8+JiN4YTs8cGF0aCBmaWxsPSIjZTQzOTIxIiBkPSJtMS4wMDE3IDIuNTQ5NSA2Mi4zMzIgNjAuODA3YTEuMTI0IDEuMTI0IDAgMCAwIDEuNDM2OCAwLjEzNTljNS4xNjI1LTMuNjk5OCA2LjA1NzgtMTAuNTIxIDkuNTI2OC0xMy4wNSAxMC4yNzUtNy40OTAzIDE2LjA5Mi05LjM5MDkgMTUuNzMxLTEyLjYxYTAuOTkwMjIgMC45OTAyMiAwIDAgMC0wLjMwODUtMC41ODQ2M2wtMjIuNTE4LTIxLjk2NmMtMTIuOTQ0LTEyLjYzOC00MS40NzUtMTQuNDU0LTY1LjM2Ny0xNC43ODJhMS4xOTA4IDEuMTkwOCAwIDAgMC0wLjgzMjczIDIuMDQ5NXoiLz4mI3hhOzxwYXRoIGZpbGw9IiNmZjc1NTciIGQ9Im02Ny4yMTIgMTUuMjg0YzcuMDc2IDYuOTAzNSAxMC4zNTUgMjAuNTU5LTMuMjA1OCA0OC43MjEgMjIuMDQ2LTkuODUyNSAyOS43NzEtMjIuODA1IDI1Ljk3Mi0yNi41MTF6Ii8+JiN4YTs8cGF0aCBmaWxsPSIjMGNiNmZmIiBkPSJtMTUuMjc5IDYwLjhjNi45MDM1LTcuMDc2IDIwLjU1OS0xMC4zNTUgNDguNzIxIDMuMjA1OC05Ljg1MjUtMjIuMDQ2LTIyLjgwMy0yOS43NzEtMjYuNTExLTI1Ljk3MnoiLz4mI3hhOzxjaXJjbGUgZmlsbD0iIzRhNDg0OCIgcj0iMi43MTgyIiBjeT0iNjMuOTk1IiBjeD0iNjQuMDA5Ii8+JiN4YTs8L3N2Zz4=;" vertex="1" parent="1">
          <mxGeometry x="290" y="210" width="50" height="50" as="geometry" />
        </mxCell>
        <mxCell id="494KCF8BVKVMXKI5Pt0m-17" value="" style="edgeStyle=orthogonalEdgeStyle;rounded=0;orthogonalLoop=1;jettySize=auto;html=1;startArrow=classic;startFill=1;jumpStyle=arc;" edge="1" parent="1" source="494KCF8BVKVMXKI5Pt0m-4" target="494KCF8BVKVMXKI5Pt0m-16">
          <mxGeometry relative="1" as="geometry" />
        </mxCell>
        <mxCell id="494KCF8BVKVMXKI5Pt0m-4" value="PMS Database" style="outlineConnect=0;dashed=0;verticalLabelPosition=bottom;verticalAlign=top;align=center;html=1;shape=mxgraph.aws3.postgre_sql_instance;fillColor=#2E73B8;gradientColor=none;" vertex="1" parent="1">
          <mxGeometry x="410" y="210" width="50" height="50" as="geometry" />
        </mxCell>
        <mxCell id="494KCF8BVKVMXKI5Pt0m-11" value="Target planning files" style="shape=image;html=1;verticalAlign=top;verticalLabelPosition=bottom;labelBackgroundColor=#ffffff;imageAspect=0;aspect=fixed;image=https://cdn3.iconfinder.com/data/icons/document-icons-2/30/647702-excel-128.png" vertex="1" parent="1">
          <mxGeometry x="130.72" y="390" width="50" height="50" as="geometry" />
        </mxCell>
        <mxCell id="494KCF8BVKVMXKI5Pt0m-12" style="edgeStyle=orthogonalEdgeStyle;rounded=0;orthogonalLoop=1;jettySize=auto;html=1;entryX=0.5;entryY=1;entryDx=0;entryDy=0;entryPerimeter=0;" edge="1" parent="1" source="494KCF8BVKVMXKI5Pt0m-11" target="494KCF8BVKVMXKI5Pt0m-4">
          <mxGeometry relative="1" as="geometry" />
        </mxCell>
        <mxCell id="494KCF8BVKVMXKI5Pt0m-15" value="" style="image;sketch=0;aspect=fixed;html=1;points=[];align=center;fontSize=12;image=img/lib/mscae/Docker.svg;" vertex="1" parent="1">
          <mxGeometry x="770" y="290" width="60.98" height="50" as="geometry" />
        </mxCell>
        <mxCell id="494KCF8BVKVMXKI5Pt0m-16" value="Airflow&#xa;Transform Data" style="shape=image;verticalLabelPosition=bottom;verticalAlign=top;imageAspect=0;image=data:image/svg+xml,PHN2ZyB4bWxucz0iaHR0cDovL3d3dy53My5vcmcvMjAwMC9zdmciIHZpZXdCb3g9IjAgMCAxMjggMTI4Ij4mI3hhOzxwYXRoIGZpbGw9IiMwMTdjZWUiIGQ9Im0yLjU0NDEgMTI3IDYwLjgwOS02Mi4zMzJhMS4xMjQgMS4xMjQgMCAwIDAgMC4xMzU5LTEuNDM2OGMtMy42OTc3LTUuMTYyNS0xMC41MjEtNi4wNTc4LTEzLjA1LTkuNTI2OC03LjQ5MDMtMTAuMjc1LTkuMzkwOS0xNi4wOTItMTIuNjEtMTUuNzMxYTAuOTgzNzQgMC45ODM3NCAwIDAgMC0wLjU4NDY0IDAuMzA4NWwtMjEuOTY2IDIyLjUxOGMtMTIuNjM4IDEyLjk0NC0xNC40NTQgNDEuNDc1LTE0Ljc4MiA2NS4zNjdhMS4xOTA4IDEuMTkwOCAwIDAgMCAyLjA0NzMgMC44MzI3M3oiLz4mI3hhOzxwYXRoIGZpbGw9IiMwMGFkNDYiIGQ9Im0xMjYuOTkgMTI1LjQ2LTYyLjMzMi02MC44MTNhMS4xMjQgMS4xMjQgMCAwIDAtMS40Mzg5LTAuMTM1OWMtNS4xNjI1IDMuNjk5OC02LjA1NzggMTAuNTIxLTkuNTI2OCAxMy4wNS0xMC4yNzUgNy40OTAzLTE2LjA5MiA5LjM5MDktMTUuNzMxIDEyLjYxYTAuOTgzNzQgMC45ODM3NCAwIDAgMCAwLjMwODUgMC41ODI0OGwyMi41MTggMjEuOTY2YzEyLjk0NCAxMi42MzggNDEuNDc1IDE0LjQ1NCA2NS4zNjcgMTQuNzgyYTEuMTkwOCAxLjE5MDggMCAwIDAgMC44MzQ4OS0yLjA0MDh6Ii8+JiN4YTs8cGF0aCBmaWxsPSIjMDRkNjU5IiBkPSJtNjAuNzkyIDExMi43MmMtNy4wNzYtNi45MDM1LTEwLjM1NS0yMC41NTkgMy4yMDU4LTQ4LjcxOS0yMi4wNDYgOS44NTI1LTI5Ljc3MSAyMi44MDMtMjUuOTcyIDI2LjUxMXoiLz4mI3hhOzxwYXRoIGZpbGw9IiMwMGM3ZDQiIGQ9Im0xMjUuNDUgMS4wMTEzLTYwLjgwNyA2Mi4zMzJhMS4xMjE4IDEuMTIxOCAwIDAgMC0wLjEzNTkgMS40MzY4YzMuNjk5OCA1LjE2MjUgMTAuNTE5IDYuMDU3OCAxMy4wNSA5LjUyNjggNy40OTAzIDEwLjI3NSA5LjM5MyAxNi4wOTIgMTIuNjEgMTUuNzMxYTAuOTc5NDMgMC45Nzk0MyAwIDAgMCAwLjU4NDY0LTAuMzA4NWwyMS45NjYtMjIuNTE4YzEyLjYzOC0xMi45NDQgMTQuNDU0LTQxLjQ3NSAxNC43ODItNjUuMzY3YTEuMTkzIDEuMTkzIDAgMCAwLTIuMDQ5NS0wLjgzMjczeiIvPiYjeGE7PHBhdGggZmlsbD0iIzExZTFlZSIgZD0ibTExMi43MyA2Ny4yMTFjLTYuOTAzNSA3LjA3Ni0yMC41NTkgMTAuMzU1LTQ4LjcyMS0zLjIwNTggOS44NTI1IDIyLjA0NiAyMi44MDMgMjkuNzcxIDI2LjUxMSAyNS45NzJ6Ii8+JiN4YTs8cGF0aCBmaWxsPSIjZTQzOTIxIiBkPSJtMS4wMDE3IDIuNTQ5NSA2Mi4zMzIgNjAuODA3YTEuMTI0IDEuMTI0IDAgMCAwIDEuNDM2OCAwLjEzNTljNS4xNjI1LTMuNjk5OCA2LjA1NzgtMTAuNTIxIDkuNTI2OC0xMy4wNSAxMC4yNzUtNy40OTAzIDE2LjA5Mi05LjM5MDkgMTUuNzMxLTEyLjYxYTAuOTkwMjIgMC45OTAyMiAwIDAgMC0wLjMwODUtMC41ODQ2M2wtMjIuNTE4LTIxLjk2NmMtMTIuOTQ0LTEyLjYzOC00MS40NzUtMTQuNDU0LTY1LjM2Ny0xNC43ODJhMS4xOTA4IDEuMTkwOCAwIDAgMC0wLjgzMjczIDIuMDQ5NXoiLz4mI3hhOzxwYXRoIGZpbGw9IiNmZjc1NTciIGQ9Im02Ny4yMTIgMTUuMjg0YzcuMDc2IDYuOTAzNSAxMC4zNTUgMjAuNTU5LTMuMjA1OCA0OC43MjEgMjIuMDQ2LTkuODUyNSAyOS43NzEtMjIuODA1IDI1Ljk3Mi0yNi41MTF6Ii8+JiN4YTs8cGF0aCBmaWxsPSIjMGNiNmZmIiBkPSJtMTUuMjc5IDYwLjhjNi45MDM1LTcuMDc2IDIwLjU1OS0xMC4zNTUgNDguNzIxIDMuMjA1OC05Ljg1MjUtMjIuMDQ2LTIyLjgwMy0yOS43NzEtMjYuNTExLTI1Ljk3MnoiLz4mI3hhOzxjaXJjbGUgZmlsbD0iIzRhNDg0OCIgcj0iMi43MTgyIiBjeT0iNjMuOTk1IiBjeD0iNjQuMDA5Ii8+JiN4YTs8L3N2Zz4=;" vertex="1" parent="1">
          <mxGeometry x="410" y="90" width="50" height="50" as="geometry" />
        </mxCell>
        <mxCell id="494KCF8BVKVMXKI5Pt0m-20" value="Streamlit&#xa;Update target" style="shape=image;verticalLabelPosition=bottom;verticalAlign=top;imageAspect=0;image=data:image/png,iVBORw0KGgoAAAANSUhEUgAAAlkAAAFKCAMAAAAZjLrdAAABd1BMVEUAAAC7QEC9QEK+QEO9QEO9QEO+QES9QEO8QEO9QEK9QEOvQEC9QEO/QEC8QES+QEO/QEO9QEK3QEC7QEK6QEW/QES9QES/QEKAODj/Skr/S0v/Skr/S0v/S0v/QEBwMEB+Njp9NTt9NTt8NTt+Nzl4MDj/Skr/S0v/S0v/SEh9NDt9NTt8Mz3/Skp+Njv/S0t9NTt6NTp9NTp9NTp8NDj/TEz/Skr/SEh9NTv/S0t9Njv/S0v/UFD/Skp8Nj3/TEx8Mzn/Skp+Njr/SUl/NTt+NTl9NDp8NDz/RUV9Njp6NTX/TEz/SUnfRUe5P0P3SkrWREaZOT7NQkW5P0KFNjzvSEnFQUStPUHmR0j7SkreRUfaREaFNj2xPkKdOj+JNzziRkfBQUSKNz21P0KBNjzqR0ihOz+NOD3JQUSjPECROT6pPECsPUF8NTp7NDnzSUnSREWlPECHODq9QEK/QEC9QEL/TEz/S0u8QEO8QEP/TEzeRUj/UFCH6dSsAAAAfXRSTlMAQJ/f7//Pn1Bg3xCvEM+/b3AggDB/j48gYL/f/+8QEH+//89vIDDPnyDv31B/X9/vMGDfQFCAQJ+P33AQkFBAUK+AoI9vr0AwsDCvcL/P/////////////////+///////+/////////v///vkHD///9g3yDvkKCQoICgIC6qc0cAAA1pSURBVHgB7NXVoWQhAAUwRhh37b/SFVae6+X8JU2kfBKj8WRa62y+KP3Aclr/WS0L9LHe1Mfm2wIdrHf1qdm2DAfz+ty+wGCH+tKxwECnaX1peiowzL42PiR6oQ8JXOhDAhf6MM+FzbnQmwubS6EzFzazAt9yrY0P6etUGx/S2ao2PgxwoQ8jXOjDJBf6MM+FPsxzYTMqdObCZrUtdObC5lbozoU+JHOhDwld6ENCF/qQwIU+JHChDwlc6EMCF/qQwIU+JHChDwlc6EMCF/qQwIU+JHChDwlc6EMCF/qQDtbtQh/S2702PqSvUW18SP5CH5K/0IfkL/Qh+Qt9SP5CHxK40Ie8cFrVTnz4k727QHIjBqIw3GGOocijtEmLRi0zhHP/EwVfyKSRvEXT7zvDq/pVvWu7Jf8p3Bttu6LDHwNjD9fQ7fW99xubWwLbOwq7AzHo2aO79tTmrob+l9EYw2rrX5MBW7i+h6+s7gqm8t0g6L/ChC1c30uru4K9fRHZ1RmhYAuTsIcHh35GX2SgkLcttpA9PDr080SOVfO3xRayh0d9v4jIiS7mTtlC9jB9V/FlRU8QbCF7uNX3y4gUqjnbYgvZw60zvxxe8EnbYgvZQxwaVhARpyudD9jCTA+bZnflL0TkUlcLE7YwU83gruBARK7aGhEKtjBPQyrpYOhjWvLdtWrpbbGF7OHNoY86kx9utYRQsIXsIQ5YcW/lJ6dlhFO2MF3D3q7wfv/hUst5N2ALTfcQu4p7Lz9E3vCZ5y22EGomDqMzWgIfVE1tK72F7GH3oy+tL4A3vKVtoYXsYf4BK3LMgh1NECYDtjBBzdau8H6HE00SCrbQUA8/Je0Kxyy40kShYAuN9PDg0KfB+x2cWtoWWsge5h8a4u/39Dd8wumULYSGhV3Nvt+hrRncgC1M6KGJXfm9rkDkDV+9E0TtUQns4dZnD/nvd7zhjWyr/iiOPcRhNMMXmeHUxraaDx8Be5h+wEo6ZsGtZmtPBmxhTM3Armbf79DWfKFgC2MaFnaFY1b+Gz5pW2whelixw2j8/Q7bqpXfVqSF7OFRfFcp73dwWvltoYXsYf4BK+n9Dpe6tm/snQWu3UAQBJ8l94PN94c1hJnEEQTEEFH4/sfJASactGp2lTpDS1tqz4xvvfv/Fjb7Hv59rqK/x9HSPiuIIpaL9k40/L2/x/Ww/rK1iuYq9STy3/N+FwiVVofZqsIZa49FQ1gGMzh86ju6RTwX3eUq+LvL4fMeg1iVgavOchXLLJ/DJ60gqnKwJD3RYPD34PB9ZqsoB/uuitE4TGpw+NzZWpWFuacCK5ZZdodPdke3Kg9L7lwZ/D1+lu6ngijKw77HXEV/jw7fY7ZWZWLuohgNfNj9kI93DNDZqsrFgk8iG3i8CxgcPtkd3aJc7HMXWAZ/j6OlXVSnq7Ixd5erWGb5HR6vIKrysfAnGvz+HtfDOstWUT7KlG8S2TBM6q206GytysjGFw2WMgtweOoYRFVOBixXgL8bHJ6/o1uUkzJBuQL83eDwfL21KisbeKIB8HerwwPZqsrLABajgL87HR7IVlFeysQXWFZ/j7wyJIm5o7sqMxuQKw9vdwHnZ2m+gqjKzUDlCvB3w2gpmK2i3JSJK0YNw6RQpQVka1V2NmfR8DgkACizDA7PV6eD8jMABRbg74b1MPCO7rWi/JQJyBVQZhkcnqsgrqsFNuxEA+DvBocHsjWoDQZgEhnw9+DwQLaAt5CkTEDRAPi7weGZO7rX1Qpb27kKfxbgHT7y4hPwFvIMTK4Af48OD9RbwFtIUSb+RINvGcy5HgZk67paYvOfaODLLMDhDdk6qi0GoMAC/D38AdiL4RhELWqLMvG5spVZwGiprYI4qDU2NlcGfzeMlvLZOqk9BqAYNQyTGiotIlv8W8i/h/cfEHEK/g44PHBH96AW2aACy+Dv/HqY5xjESW0y8Lly+Tvg8IYKoha1SZmgEw2GPwsYHJ7P1kGtsjGTyIY/Cxgcns/WSe0yEEUD4O+gwweev/G/hTzjxOfKUGYBDm+oIA5qmTMgVwZ/Nzg8nq2T2ubIn2jwDZPGPwC3k61a1DbjBJxoMJRZBodns3VQ65zxBZbB3w2jpYbq9J7zLeQ5ArkC/N04WmqoIGpR+4wTkCuDvxvWw7hsHdQDZ0AxavizgKHSwrJ1Uh8coRMNBn8HHN5wDKIW9cFYDQWWg7gMxju84xjEQb1wgeTK4O+AwxsqiJP64Qo40WAYJjU4PJCtWtQPY/VPIjvKLIPD89k6qCcu/EWDw9/x9TDDHd2T+uKKz5W5zHJ8ljZUELWoL8ZqzpXB3w0Oz2frs3rjiztXBn83VFo8X9k7Cxy5YiCIzj2yoggjCl8gOcDEa894mez9Xggn91cEYYZfSvXo9RlK8tNzw/LJpkUrCdIg53cDhhdka3uzkpWLLBWCywIGraXCWq03Klr1pj+/ezK8oHbWvIcGzaTm42FkK5f4MsuS4clW9eZ3AcN71+7emvfQX2YJGF5fy33eQ2N+N2B49FaNz++eDE+2kj+/z8XwZIv38M5i3nq4Fa1W27yHYn63+Zb2VxC8h4LLAo6tpWQrF9NhsOhKi2xVf34XMbx/BVenyV9micbD/Gu5x3voxu8GDI+CqPGbST0Znmyl+J/RlgxPtvJBfH63ZHjU6WF8fvdkeBTEkT4y2ssCrgxPto71odFeFjC9AEy2Dp35HYb/UCdr3kMbmfWhbmxEtJZ7p7yHDvxu0FqKgjj0byaN2VpKto6cZRZKK3K2zuLzuyXDswyidT9+NxgPM63zdaBoTfH53ZPh0VsjPr9bMjzZat2A32H4ebPFe3jnw2UBGP6P1Oma91DP777f0iiI1i2bSeMzPNma7GVW0AvAZGvE53dLhkedtu4rs2gtDb1Hd4rP754Mj4IYlvwefzyMbLUekt/9lRbZmgJfFrBmePbojvj8bsnwKIjW439GWzI82Zo8ZVZ8hidbIz6/WzI82WrdWmYZXAD2r9UF76Ge332+pVEQIz6/WzI82Wo9JL/7Ky2yNcXnd0+GZ4/usOT3+ONh7NFtPehlAXeGR0Fcel4WiD8eRrau4vO7JcOTrdwtZRYMH3+P7rU/v8PwMRXElX8zKQwfMlu5+8msGerW1v8usnXtye8wfPw9ulfx+d3yAjDqNHf/ywJ8S4dUEE/9LwvQWhozW8mK3/2VFtkyOK35TB8hGN54GUT15HfGw+Ivg0j+zaQwfEi9lYu/zILhQ2ar+vM7DB8zW8nyMxqGj79HNxd/fofhQyqI6s/vMHzMbKX4/G55AZhs5SK5LADDo06rP7/TWhpTnSb/ZlJaS0MqiFz8ZRbjYSGzVTX8jtIiW0kis2B4lkHkYsnvMLyglvsx38Mv+R2GR28lAb/D8GRrvvfw+eKLguHJVvXkd8bD4i+DSJJhML6lURC5SGQWDE+2qj+/cwE4ZraSRGbB8KjTfCDhd1pLWQZxqGkmheFREEcafmc8jGwdS/idb2mydejP7zC8qF5o1emR5rIADI+COJZcFoDhydahht9heLJ1pJFZMDzZOvPmd/0FYNTpqe6UmKCZlG9pFMSkkVm0lpKtIeF3lBbZal3C7zA8yyAmDb8zHsYyiCG5LADDoyBaF/A7DE+2/vg9fLT4vYLhydaQ8DsMzx7d1iXNpDA8CmLSyCwYnmwNCb8zHka2WjeQWU4MT7ZeCt/DGfidFQ+o0yHhd1pLURCtS/id1lKyNWkuC6C0yNaQ8DsMzzKI1iXNpIyHsUd30sgsGB69NST8DsOTrdYlMguGJ1uTht9hePboDgm/w/AoiNYl/A7Dk61XGn7nAjDZupLwOwyPOs1dclmA1lL26F5rhsFoLUVBXEn4nfEwspW7RGahtMjWtYbfYXj26F79VjMpDE+dr//8PRTILBgevVU1/A7Dk60k4XcYnmzlIrkswHgYyyCq5rIA39IoiCThdxiebH35Hs42DIbSIltVw+8wPHt0k6SZlNZSlkHkIpFZMDwKomr4nfEwspUkn9EwPNnK5W/4HYandn+lTquG32F4FESS8DsMT7Zy0V8WENbjLco1W1XD7zA82Ur/0EzKBWBqdfHD9/D1QlB8S6Mg3iwUBcOTrbcLQSEeyNa7du4ay3IYiMJwpRN3JHIo14s6ciU6PrUA72YYtPgxDvMY1Hr3W8NvED7QATBbissgXtBTF4MvDy6DePWSDoDvIaYgnlEFXvvSoK0HqsIbXxa09ZYOgLRwj+47qsZ7Xw74QAfAbzwkqsrt0ZcAHpVqkwpoC/qG6nN7468FVqlOtyvfW9Aaqpi+uSQuCKxUO002+DNBGExD9yF2wjxY5+E4oR2YWUyX6Q5l7ZKwbYOHfQRnuU9Gt5wgorE9emoIfiqrGukHRPb7nNqBxZiInv4tMmFrnYeFay33YjrktGtlSfrh/jJzzjJLQk1nyFE7I8JsrXM1fuamlsQYRUyXh6ZmLa114cmF5OxaUqcZKRUtL60lkX6qzTrnCvmwuXaqiEXS1FHMmaCG3rKOzJTc1NzITtxkr3KmdkY86mUKaCpIY0ZDqG8W9U/EvGoIAAAA4EsfATuy5aF1swq8AAAAAElFTkSuQmCC;" vertex="1" parent="1">
          <mxGeometry x="550" y="90" width="70" height="50" as="geometry" />
        </mxCell>
        <mxCell id="494KCF8BVKVMXKI5Pt0m-21" style="edgeStyle=orthogonalEdgeStyle;rounded=0;orthogonalLoop=1;jettySize=auto;html=1;entryX=1;entryY=0.5;entryDx=0;entryDy=0;entryPerimeter=0;exitX=0.5;exitY=1;exitDx=0;exitDy=0;" edge="1" parent="1" source="494KCF8BVKVMXKI5Pt0m-20" target="494KCF8BVKVMXKI5Pt0m-4">
          <mxGeometry relative="1" as="geometry" />
        </mxCell>
        <mxCell id="494KCF8BVKVMXKI5Pt0m-22" value="Reporting &amp; Dashboard" style="shape=image;verticalLabelPosition=bottom;verticalAlign=top;imageAspect=0;image=data:image/png,iVBORw0KGgoAAAANSUhEUgAAAgAAAAEACAYAAADFkM5nAAA8CUlEQVR42u3deXxeVZ0/8M859z5PkiZN9y1bFyiCReAHuI5oQUQLdANTF9a0lTqgiI46rvAIDm6oiANjoG3KNuMkA11AcHC0VVSGAUFx6iClLW3SpAtt0zZN8iz3nN8fJ4FQ8tzluffJDeHzfr3yUvrce86591nOuWf5HoCIiIiIiIiIiIiIiIiIiIiIiIiIiIiIiIiIiIiIiIiIiIiIiIiIiIiIiIiIiIiIiIiIiIiIiIiIiIiIiIiIiIiIiIiIiIiIiIiIiIiIiIiIiIiIiIiIiIiIiIiIiIiIiIiIiIiIiIiIiIiIiIiIiIiIiIiIiIiIiIiIiIiIiIiIiIiIiIiIiIiIiIiIiIiIiIiIiIiIiIiIiIiIiIiIiIiIiIiIiIiIiIiIiIiIiIiIiIiIiIiIiKIn4i7Am1EqlZJPjr8kUTG1VI47uCd354ozs3GXiYiI3lzYABgqWot5TS9OLLXKxglHViiZfeXeC8fKaZk91G2V7Xvs8qlH4y4qERGNfGwADIEFq54fbelR07WtS1wPzAJOScmB0tLf7mxZssSJu9xERDRysQFQZIvvbpsgnNx0JYXve61VsidZceDFliVzMnGXn4iIRiYZdwFGsgWr9o0WjgxU+QOAkJmyTFfF8amU5vtDRERFwQqmSFIpLRN278yBY/1BCImy547fVRX3dRAR0cjEBkCRPDdtxxRHq0SoRDK5yfXNm5NxXwsREY08bAAUiS4rnRA2DSWFwNFJ4+O+FiIiGnnYACiCK5u2l2qVLgmfEpBW2TFxXw8REY08bAAUQSdQGlVaFtKRpUVERNSPDYAicEpK7KjS0sqyAc3lmkREFCk2AIqgtNtRkSVmWw4gdNzXREREIwsbAMWQLoksgI8jHO4TQEREkWMDoAharp50FNqKJJSvVPbhuK+HiIhGHjYAikEI7eRyh6JISusjnXFfDhERjTxsABTJEVt3SJUINXYvhHVkw7ITj8R9LURENPKwAVAkmxpm9mbSzp5Cz1c5rez9ujXu6yAiopGJy8uKbNGanccBemyQc6RKaCXS29Y1zOyMu/xERDQysQFQdFosXN1eI2Rusp+jhWPlHJRs27BsErv+iYioaDgEUHRCr19a3Zo42vU3IawjyLeoT1uOtK09B1u3bGblT0RExcYegCF2VaNO7CvdVSl6c8lMqSUTIpEdJRO9918y/ggEA/4QERERERERERERERERERERERERERERERERERERERERERERERERERERERERERERjQDDci+AqxqfTuxJTHu/0PpkLfUUoZCGEO1K6V9vWF77YtT5zW9sH1WaEOVpnU2ojBCJ8nS2AhVH77186tGo86pv3pzM9YwZLWQuaSlLpjPZXInSvXM67j2SSqVUtHk1W90vv7NSl6mScmlbUCUOnHRmX1vN4U0pkYsyr6san07sS06aq5U1Rwg9VWv0ColdjoONxXjPiIgonGHVAFiwat9oKdJfAvQ1AMblOexZAXH92qU1D4fNb/HdbROQVdO0rUsGe11lZdYqSexee9mUfWE36qlv3luRPpKtlipXgcQgeeW0EjLx8qGdVR1hK+d5t20pscsSVQkL45QUr3uPpUpoJa1DiQOZ9pbP1/aEyuu+LZXJTNmXBPTVyPue6Wekktc/uLzm52HyIiKi6AybBsCiNTvOEEqu10C1vzN0s5O1Gx5aUdUdNK+5G7Vdua39OGnlKnzlpNCTrKh7sWWJyAS/Mi3mN3bUWiXZSX6OFo6V6z3as/3Ra2cfLuQ+Lr67bYJwctMHq/iPJVVC5xxr14ZPTtlTSF4LVu08UwqxHkCVvzPEvycqdEPLknCNDiIiCm9YNAAWNu08S2jxCwCjAp76RKICHwhSoZzR+HSizpr8lnxP/XlvlOPkeqfNfP7R80Xa/1laLFqzdxbQOzZIXlIltBJl29Y1jOsMct6Cu/ZMkYnemoD3ENK29jx4aU1bkHMWr259vwYeQfD37A+JCpzLRgARUbxk3AWYf097ndDiAQSvSADg3dkjaPR/uBbV9rRZQSt/ANCWZdt7dx6fSmnf96z+7raqoJU/ACiZFco5NLO+ubXMd16NW8dIBK/8AUDlnCmL726b4Pf4+fe012mgBYW9Z+/JdemfFlJOIiKKTuwNAJlV3wXgq3t8UAKXLV7ddo6fQ+tX757ot9t/MBZQ+kxt61Q/x85t2l7qONaUgu+LLWT6iKzzdbDWIldWXjvY3AK/tELt3NRG29d9yKnvIcR7piEu9/ueERFRccTaALi4qf1EIfSS0AkJfYP3QVpkRM5X5e2ejJpS39xseR022iqbpmQ21BCLtHIVC1Y9P9rruHlNL07UKh24V+M1hGNV1h432euwxXe9dBKg60PlBUBDXx82DSIiKlysDQBH5z4SRRm0xnvrm7a7Vu71t+8rF0Ilw+YlbSG7s++s9CiQsJzcmCjukc4lxnkdU5qTnsf4IURirGd5pIzkPQNwltd7RkRExRPvEIAWc6O6jhws17Qcu9vzSdp3Zk7CNa36ln3lEI5nL4EvJbZHubUQtlXwsMZAQmbKzmh82n0gQYi5kVwXIDPaen9EaRERUUBxzwGojSwlJdzTssI//fcTGcc9rcPp6PLKade0rmqE7WfJn19VqPKaSRDdexZtWkREFEC8DQCBSJ5cAUBL4fqknNUyumsV0vXpvneUFVleUgsJ6LwV/AvJl6Lpaei/NDvhnl6E7xkgIuuVISKiYOLuAdgbVUIaarfrhVq5yELfJkQu6/a6lU5HlpeVlFkgfxTCSeUzskHS8zJedrmnp6N7zwT07vCpEBFRIWJuAOgXokvKck0rifLeqLLK6lGuaY0FossrJ10DD7UsEY5wnEgaHFJpPWPHDK9oh9G9Z1JGlxYREQUSawNAaxlVbPjDyYrO37oeUXHgECJ6Vh6TcA65vb6mYWavyAWJGJhfTmYOeR2jpfA8xldeCetwKiVcNyQSEJG9Z4lRhx6PKC0iIgoo1gZApqRnHYD9oRPS4r6WJXNcn1xblszJWLYsKL7+a7JSyR4/uwTaVunLYfNSwlbl5d0HvI5LdJeHzgsAnCPK872ws+l1iOA90wL3er1nRERUPLE2AB69dPZhIfTNIZPpSsjsTX4OzGSsXWF7AZLZkl1+jpuzY9JeJWSo3OyM3uenkmy5ZnKXyslQvQCWThz9+dXTD3rmteK4Q9D622HyAtCVRO5bIdMgIqIQ4p4EiFN31N6qBQrtVtYaenlLw0xfk8keWlHVLZVuL7SsTjq3r2XFeF8VbSolVElXyTapdEHbCAuZ6D5lV7Xvsu5y9uzQWhb2RJ1RTveUadv9Hn5aa+2PYDYCKkSg94yIiIpjWOwGuKhp+1hoewOAswKcpjTEF9YvrflR0PwWrt5VK2TOM+ztQJbCwQca6rZDiEAVev3K1vGOdGYEWauvFXqmZOu23LlCBOpBqG9uLUsfwmyZUP53BcgoR1nprRuWnXgkSF4X3L9jXCJtbQD0ewOcpqDFP6xbVnNrkLyIiCh6sfcAAMC6hpmdiYrD52rgNgB+ZrS3SiUWFFL5A8D6pdWtTjKxAxnleB2rclpltNr1wNLp24JW/gDQsrz2gNUz6gXLz8qALACd3J+sePJvQSt/AGhZUtszVdX8n6X9zXVwtDramcDzQSt/APj5JdMPprt6zoXGT+DvPdupBeaz8iciGh6GRQ/AQAtW7XqLFOrTABbitZHilNb6CSlEs12Bu6LYT35uaqM9ftrMSbosOVar7Gu2trWA3rSQnVW9NXsLqYxfT4v5jR0TkklnnNbW6IEbBQnHyQld2pl1sO+hFVXdUdzHefdtqbTV6AmWkxszMCyxytlK2s5h6NH71zWM64wir4ub2k90tHMNgEUABm5JrADxBwjdnCjHyijeMyIiisawawAMdMH9O8bJLKqQ1d0TbN2xpmFmZOvrj5VKablp+kvJGQCOlj+VbVmyxLN3oGBai/qWvyaASmvfpJrsprNFZIGDBnNV49OJg+Om2OMO1uTuXIGcW2ChsOpXto7vtdU0ZHV3rifb/ui1syNZDklERERERERERERERERERJ6G9RwAIqIR5L0ALnR5PQ3ghrgLSW8ebADQm0UFALfYD1kArXEXcgSUmfK7DoDb0uUjACrjLiQR0UhzKQDt8bcZr116GqcvwsRXcCvv3+IuJAVyHdzfz9B7lRAFMSwCARENE28FcFfchQBwBoDvALDCJkRElI8ddwGOlUpp+Wxd+zkQapHQOAWmCzQDoFVobJJCPfDA0unboszvz7U736OFfA+AKmhICNGhIZ6aku34zZ0rzoxoE2HjyqbtpYd6nUp7VEmiV1hWQiSyadndOyrx5OGoYw8svmf3ZJ3NnA8pZwmtJivIlwWwU0M8un5pdaRdx/Mb20fZidwHtcYpWoopQok0gFZIbFrXUPOnKPMqsg8B+CCAX8ZYhu+AjXMiKrJhNQdg4epd50qtfqAFTnE5zIHAGpXLfm3DJ2ftKTSvqxqfTuxNTFkBga9CY1qeww5oIX6gMvLWsBH66hu3jsmVlVUdG3Gwn1RaQyX3T3SmtYeNPLhw9Y63Sljf1tAXYPCnSA1goxT6yw821D0VJq/Fd7dN0I7+BoBPAhj02qDxghb6+vUNtc2FhFOOyKUA7vV57B8BvL3vPg21c+G/8fECgLfEUMZiOAnAYrx+DPxGAJFExxwGrgPnANAwMmwaAIuaWj8LjR/C/5NPu9J64YZldU8HzevCu1urbUesB/QZPk/ZorScv2FZdfAxV63FojW7p0NkJvg73nKA7EvrGmZ2FnQfV7d+GuZHxk/vjtbATesbalKFVMwLm3aeJbR4EMBEn6c8rHTpJzYsmxR474EIBGkAAMDHAfxsiMsoAPwPgDN9Hj9SGgDjAOwAMHqQ1yYC2B93ASNyHdgAoGFkWHQzLl6982vQuDVgeaqkEL9auHrHW4PkZSp//HeAyh8AZkuhnpi/ZsecYFemxcVr2o73XfkDgHAs5ORx9Stbxwe9j4uaWm8A8BP4H9oRArh+UVPbTwPntWrneUKLX8J/5Q8AF0rRs+m8e3aXB80vBjcDSA5xnkvgv/IfSf4Og1f+RFREsTcAFq1p+4CGuLHA0ysFZEt982ZfP9T1zZuTtoO1eO2GNX6Ns5RcX9+4dYzfExaubq9xhAreok8A6YScPr+xfZTfUxatar0YuuA1xFctbNp5te+81uw8DkL8DEBJ8KzE6aNy2aYCyzmUZgK4agjzswGk4r7omJwWdwGI3oxibQCkUlpC6e+HLMdbs12Vvn6oc12Vn4IZ2y3UcZlk8st+Dqxvbi0TTm6yn2MHI3VOJpOo83PslU3bSyFwK0IM6Qgtvrv4nt2+yiuU+D5Mt22h6het2nleiPOHyvUYuifT5QBOjPuCY3Jq3AUgejOKtQHw5+k7PwDg/4VPSfyD1xH1zdpSwFdC56Rx7aKm7WO9jlNdahoS4fJyRLZ83n1bPHsQOrW9HIX1agxUgWzms14HLWxqfZs22/6GI8QbIeLZJACfH4J8ygB8Le6LjREbAEQxiLUBoCAXRpOSnrF4VZvrj0iuq+29ApgaQWajoK15bgekUlpmlfY9VOCmQpWP9XHYR6LISwtR73WMULgY0UweffdFd7WFbbQMhS8AmFLkPD6H8A24N6oKAMfFXQiiN6NYGwBCRzfhSUN7pfX+CEs+1+3VzW/dN0raIpJ7q1TWtQt6bkrbMJOoojD7osaXprkeISK7j0JZ6qyI0iqmChT36XwcTCPjzeoUDIO5SERvRnF/8aaFT6KfrnJ7VelIn7Dc0zqcjmz2eDZnu6ZVMbNtCqIM6JSUXvcpsvsotHijPPV+CsV7Sv0qws2neKM7Le4CEL1Zxd0AiC7QinBPSwhEtvRMCFS4vd47yorsvkqdk4DO2+WegIh0SV1OyQqPQ3yvTPCiPO7jMJKACUgTtWoAvldfjFAc/yeKSayhgDXQIYDpUaQlBNrdMxO7EVEQOq1Fh9vrVjqdQzQjAFBJmYVLwe3e9J5sIrrl6gkpOzwO2QOgyk9aXqTHfRxizwA43eX1jwG4BcCzEeb5Tbg3qP4PJkLeULFgejpmA5gAMzmxF8DLAPYC+Evff0fplPBJhDYRZjLyTJjPdilMo29P39/zAJ4CoGIu51QAc/rKWNb3bx0A/oSh2RWyDKbBNhtAHcwKmQSAQ333aQeA36L4kRsnAJjR97/9c616ALwE4EVE/xkdzIy++zAFQDnMzpwv9/39BSao07AXawNAaDwFgXdFkZaCcA9pK6LbOU1Du6bVCfSOjSgvC8L1w9yy4rhDi5paO1zCGQfRI8udHa7XrsXfhNARrNwAtNTPR3SbovAHmP3Y353ndQkTo/9DEeV3EoArPI65BcCqIl/3KAAXAfgogPfBPRJdD4DHATwGE1VxbwH5JQAcD1ORnQTvHoDr+/J10whge8ByvAMm8NKF8BdNcS+AhwF8H6ZBMFQmAVgBE5nSLejZXwGs7rsXXRHmXwvz2VgMs4Taa21TL4BNAO4A8FCE5Xg3gMthPqMnIf9E5CxMKO8NAO5DdA0jG8CHAXwCwDlwnxicA/AkzPfkfgBbI7wPkYp1CEALuSGShAS2r2+o/YvbIUqrhxHRkIPW2vWDvalhZq+FZCStUCeTOeRZHoWHo8gL0P/VsqTW9cdWQkeUFzonZ/b8PqK0ojAOgFeMh/MAfCCi/L4F9wb44wCKeX9KYZbF7oCpzC+Edxjasr57cAuAnQBuhf/5C8thtls+ClNZtcAMq5R5nHctgH/0+PMVLwOm0vgITLjlJwH8A/yHUp4MYCnM010jih8fQsIMD70A4Ca4V/7oe/2WvuMXRZD/qQCaAWyDafS8B96VP2A+Vx+GqYAfB3ByyHLMBfDfMA30T/Vdp9sqpASAd8FE8twK8175/XwMRsJ8dl+AadB8HN6rgvonZn+z77z7MXy2GX/dxcVmfUPVrwD9TNh0NPQtXsdsWFbXrgUeiaDYz25YWvtHr4OyWfly2IxUzlZT1YEDXscJjZWIoHGjTDqu7N6S9Sjsye+1ZYZuinqnxZBKYLovvRo430H4ZZDvhHmicvMVFBRp0Zf3AHgO5kcySCjngUoAfBamQvSzMuQkmB/vkNExCnYqTIOqBeGCgdkwESJ/h+L9qNfAVHi3Axgb8NxpAB5E4VElxwFYCTMkVo9wvcTv7buODxdwrg3gewB+BfN9KUQC5r3aAtNQDPq9nQ3zmbkLZnioEBKm1+B/YYYRh5V4JwEKoZWWX0CIsTUBbJ6S2etrD3edw1dhumdCFFn9o5+Nc07fNXmf1jIT7v4k9/ipJNctr/0fATwQKi+I321YVufZI9NyzeQumCeSMDpzWfvmkGlErb9i+goAt22Zz4TpOg7DqxHxEMwPTzEqy6tgumhnR5ReNUxXZ9h7UiwCwJdgnvrfHTKtgU6BeY8mRVzeOTCVZqGVXv8134Dgy1fPgWnQLUN0dcNomM/zvADnSJjhjC9GVI4kzHfuP+C/5+ZDMPM+Ihmihuld+1eYhsiwEfcqAGxYVrMREF8v8PSDUmCx3yfJDZ+sfU5DfKnQsmqB769tmO5rq9ZUSqhKK7FNKl3Qk7mj1dENSyf6niRnK6xA4WNN+y04XuPRr1jXUHO7MF+mQigBcdlDK6pC95AUyf/CjB26+RYKr5w/DNOtmY8DszSwGD4D4Kchyp5PEmYY4RyXY+KYQFcK86P7XRRnY6daAPcgut/RUphu86h6Fm6C/6fvqwH8J0yDLmo2gLsDpP0NAJcVoRzvgr/36gIA6/HqBMOoCJiGyLIiXFtBYm8AAMC6pTXfhsB1CPAjIYBdkOqDDzTUbgmS1/qlNT8C9LeDllFANCXLawKFEr738qlHldDbVM4O9ONn6cTR9sz+rUG26G1ZXnvAEtaFEIEnQ+3VwAUPLJ2+zf/NENrRpUsB4Xff+n45IfCptUtroppHUCzXw30m8fEAPllAuhKA12fvfphGSNQWAr72i9B9+d8L4Mcw3dDrAXR6nJeEqWzz7SfxRBGuyYsNM2msmD4M4MqI0kog2pgQAqb72s/S3fehuJPCJ8HsVOplBrzn4gDm+/lXAI/CzDf4A7wnP14Ls2LBzWkA/h3+ht+2wmwZ/hMAt8HMmfDz0PbPAN4W/BZGL4qQrpFZvLrtHA39A7gHB3G0xmqZSHx97eVTCx6LXtjU+glo/MBHeOBOofXX1y6ru73QvOY3to+yyzBdq6zrF1GqhM5m8fIZHdPaUilR0BNT/eqOSVnkfgozs9uD/i+p7OUPLq/a4X3s681NaXtsXeuNGuJzwjy9uGSFFyCxYl1D7aZC72NIl8JUavmsx2snT90CM0ksn90w3ehBZlx/AqaCzycNsyHQS33/fQaAp12OfwH+JrFVw3TtulUuGmbC1HdgJgYeK9FX/u/A/TtzN/JXiH8H08Xd750wE+vc3AjvZWX/ivyzva8E4Lb7pMarlcizMMu4sn337GyYSsPrN+L5vuvy+s5eB+BH8M8BsA5mXspWmMplDMxSzUUwwy6Wj3S+DNML4mYGzLJTt+/xZpjesSf6ytLTV553wEzQ85pboWAmBf6fyzG3wz02Rg+ArwO4E6//7tkwk1QvgZnsObDX5yEACzzKVwbzGfD6Tq2FmWPx3CCvSZjhjh8COMEljSdgvg/RxcIpwLBqAAAmjv6f63bNVdALpcBpWmOK0EhrgZ3QepOj1IMPfXJG0KfcQdXfvrciU5b5JLS6WAjxTrzaAlaAeFYLPCglGtdeUbM/ivwuuH/HuERWjFc5VTkwVLCQJWmV6zo0Tlj71jTMjGT1wMLVu94joRo0xHxAD5y1egDAI9D63nXL6h6LIq9FTdtnaNgroLFIDNjRTgO90NgEoZunZPfeF/Okv6ANgAkwa4rHupxzA/wHCErCPLG4RRT8MUwl0S+qBkAzzISufDIwE5TW+kirFsB/If+Pm4KpDP0slfN6TwAzSTHM90/C/Ni+Y5By3gMzw/2vLuePg6k8vMJtnw/TkHBzHfw3AP4XZsa5W2/Q22Em/HlF1NwO87nzqmxuhOl+P9bvAfwTgF+4pCFgGhlf9MjjDgDX5HlNAtiF/A0uDdM973WfAdOAuw6mMt4C09A86HHOTTCNCzdfAPADH/lXwnxu3HqgFsI0PCluqZSWFzW+NO3Cu1ur++LrF9Xc1Ea7vlknU6lU0Ydhzrtnd/nFq3fM8rOzYFjzbttSMv+e9roFd20r9gY6QV0K8wOS72/dIOd82eOcw/A/CeyaAtI6w+McP7EtzoSp7NzSWR7wXs6B6YLNl56frl4/74mGaYiFNQOmB0T33Yv/RLBdSKfBVB5u5fyhj3Su83G9GqaXyG/EzbfBLK30StPPSo1EX94DP18fg/8HRQHg1x7lcBuyPcnj3GIOI02B6VFwy99ztdkxJsL0FOZLL+gQKhEVqJAGwCgAbR7n/dhH3hVw/yHQML0Jx4qiAXCvRxq/LfB+/rNLmrvhr2t6qBoAgHm6PA6FL3v8sUc5PZcGw18D4EGf926gm32k67nEd4BpMGvnC+khnuejLPkiiX7A47x/K6A8fn3dI+8d8I5ZMZjPuKSZQ/45M0QUoUIaAICZ7Od2Xhrea4S/4ZHGHgy+PClsA6AUZvzcLY0gy7OClM3PTp9D2QAI63yPcmbhXWFe55FGL7zm0gxuYl/+bmkPVfTCEpjvhFtZzs9z7iJ4f96DNo782uyR93UFpjsG7u/NpUW6Hl+GxSoAomGsCe4/nkm4x0WYCO/tfm9GcWKHvxvuTy37UHg35J/gPgEyzDr24eivHq/bCB6051gOCotj/zJMYCI3s1H86IWAqfxf9DgmX6POa67HCTBzNqKeu1YF90iLCoX3PhyCGX7K5x1+EyoGNgCI3OXgvS7/48i/cuWrcA+x+xLM2vxi8Apb/HsUHhjLweCrBfpNL9I1xeWgj2Pi7K3Y5PG6xNBtvex1r/LdJz+rkT4HM2x1VoTlPcfj9b/B9NIVym2J9YwIryOwWDcDInqDWAczAclro6Bjg65Mh/d2vzfAPDUVg9fM9al95S7UWJfXCh1rH678vEeFdN9HxU8X/4kwgYaKzete5btPO2FWPXjtH/BemEbACwDWwDydvxSivO/1eN1CuO+J23LAWL8nbAAQedMwKwJ+43LMh2DWjW8c8G83wD2gyF/gHXUwjOM9Xn8Xogt1eqyR1gDwI85l1V7d7kD4IYqhsBr+VlQApmK9ue/vGZgJlD9D8IioXt+TE1C8EL5sAOSz+O62CTntTE0q9MgK2eG1Ux1REfVvFHShyzFfxasNgOnwnuDzNRQ3RG6cSzGHYrw5KmUATofZMOg4mPduTN81jILZ731s3IX04LlrKMKHtpUwS/XOgJlTMAPmMzYK5h6OhblXXkMhbg2l22G2P/a7S2O/0/v+boSZ1/IvMN9Xx8e5b9rvybBrACy+66WTtLQ/LYReqB1dbUHCAeB0QS1a3foktGh2cvLOh1ZUeUUH86X+9s0VTnLM2KydrZCwEzoHkbCtTCaDbmEnDm5YNimyyVkLVrYebwl8BALnaY1qCDFGaL1HC2wWQm/IZewNUV3X3NRGe/QJbxlrZXJjtEqU2FbOzqSVI8pk2tLpw5N6Og9GFZinvnlzMnOk8gIh9EIAb4MQ06DRLQR2aYWNQuv/WLu8rhjhbYfaV2FmzeebiXwuzPryZ2Em/rnF3P89ot0v/VgJxLfzHhDtnvTFUAcz63wxzFBJnPcqCn7udyENgNEwn/mLYIa4wjYivGRgIvb9AYXNqZAwvXEfghki+Cq8N0orL/I1uYn1ezJsIgHOu21LSUlF6S0wISW9GiZtWsir1zdUF/wDWt/cWpbrFLU66bi2wCydOCq7D7a1XDOn4DdqfmP7RGk7NwuBpXBZxiKAXYD42tqlNXcXfie1OL/ppSlJJKZCOHnzUjlbqazae+aemo5Cww4DwKKmnYugxffh3o2mAdGsIb64fml1q9+0IxY0EmA+awBc4fL6HTA/Om0w6//zOQveM7fDRAK0EHLny5BuxOCxDQYaikiAAyUAfBTAp2FmX0f9+3cqBg8P2+86uEcC7EbhldF4eN+nu2B2g/TjPQA+DxN5L+q5DV+D6bZ38xaYyJQnRZDfSphAXPl2Z90C72GAYmmG+UzGYlj0ACxq2j5WK+theE9a6lcjtFq3uGnnF9c21PkdLxqQ38Gx6cPdM2Uy57kKwhHZcl027oR5q7e0Prp09r6geS1cveOtAs5DAGZ5HauBakCvWdTUelai/PDVLUvmBNpOuL5ZW+po2yxHyEqvni9p56S0MfUv0ztGX9X49NagvQGplJbPTm/7J2hfG3cIQH9UAHMXr2pbvHZZTRwbw0TlepgvbL4fxcvgXfk/DO/KPywHZv2x25PtL4HAm0f5sQ1mc5Th5GyYxtmJYRMapvw0HPysZKiFCfLkFTe/2P4G0wD+HEx44bEh0loO8328BIMPuXktvfwfmGWvUdsDc69jE3sDoL5ZW9mutvuF8F3595Nai1sWrd7ZsW5pne81mvPu21IpMz2zYOd8t/6VzIoSJOvmN7brINvYLli1s0qYHfOq/J4DANBYlj1SmQRwuf9ztMjds+s4LVSgMSVHZMs7SiadUN/c/HzLkiV+xssAAH+qa/2W0MJP5T+wkFO0wGMLm1rfs76h9i/Bzh02dsKMU+bbKGg03PcHUCjedr/HOgj3SGMPonhLEIcLAVOB3IziBZEZmFdcKnwc49UAmAvzROo3vHWx9cC8b7fCNLo/hcLXzX8MZh7Pvwzy2gGPc59A4YGAhrXY4wBkulo/h/yRobwIQNx1UeNL0/wcfFWjTpRky2YpmS3oi5pIZOrqf9jqKxxkKqWlEOIBBK38X72yyxatavW9b/RFK3dVa+0UNKHEAkqzR8/yvQf5RSvbLgCCVv6vqBAaD1zZtD3OJVNhfRvu2+O6Nazvh3tgkCi1ebzuFcHwjU7AdP9+F/4q/xzM094amN3eroDZce/DAD6I4k7YDMvP74xbRfdxmB4hv5X/izDb5n4XwN/D3Kf5MPfpDx7nBv397YYJyPVOmCWC34CZ9R/UtzB4z92b9nsSawOgvnHrGFF4RdKvXCXsb/g58GBZxzS3cXEvSgqRrkS1n2P/VNf6URF2iZXETefds9uza6++WSdh5cLFlM5lJvjMy1JSfw/hnnZmH4LltT5+ONsP4HsFnJeB97h4lF7weP20ISxLHD4D7+2GszBPvRfAdDO/E0ADgG/C7BbYArN50H/BLAcdrk71cUy+z8PJMBWsV4/wkzBzCKbBrAL4GMzy2J/23aeH++5T4KHSADbDVORnwIzb3wh/AYQAM0/ig4P8+xaP804r4vXEKtYGQC5RsgiRRM/Sl827bYvbemvUN2vLyWVCr7mUthrjlZchPhv+sjBtVDb7Mc/jetomKSnCdT8mgFGO9mz9Z462fQjuYTP9XZoWn4XWw2YSagF+DKA94DmNKM6Yez5Pe7x+Fgrb4OSNoBzeWzU/CVNxfhTAIzC76oUR5+f5DI/XcwCeyvPat+Eer+JlmFUA74KZSLg7ZFmjuk9bYRrUs2B6IPx8H98+yL895XFOHUbo3JFYGwAaqtCu/2NVlI5Ouu27jO7szsrQlWSfRJk11u31viGJt/tLzZ0QwnMyTq9WY30k5Z2XcsYA7pWy1DqqyUF1C1a1nxZRWnHohukm9qsL5sllKG3yeL0M5sl3JPoo3JesPQ/gPAD/F3dBI1AC7/fxOQzewKmF+4ZQDswQ7dq4L9KFgumBeAfMHB03Uwf5tz/A9AS5+UjcF1kMMc8BEEGDPeSnhFu4RYzKSb/7a3vScE9L2dZpiOjeamjXfctTKS2tiJbpaMux5932YtK9POL0KPICAClUZGnFxGujoIF+CGDvEJfvGXj/IIYdghuuvB4ubgFwOOI84+oBWAzv9fn5tn0+D+7zIx6C9xNyUMW6T7vg3cgebKLzQXg3lq+FCXg0osQ9CTCy2aZaStdoTlllRxbow9buaWmhp/pNy4epqZTO+z49Of7FSAOYVEwd45VehNemC5sgOXzkYNY0e9kH4AcxlE/DNFLcnAGzRjoOfsbUC23cei27HY6rUAqpGJPwHuoAzIS9wXhNcHsObyxeW2TnG75Y7XHeJJgJjyNK3A2AyKLsaa08WvOF7LI5OJnQrj9cEjLK2cI6dUP+H8qKqcdHOzFpn+f8nciuTUvpe9nhMLYWwH97HHMzon/a9OunMMup3PwQha3EETCzx5+FmeD4bzAVkl9+xtxnF3jdXnMbggTcETBbPhd7GWEZgm8680/wvkd/gpnvMBivp1o/ywsH+iC8d9fzYywKq5+8Agfl2zPhAXj3ln26768Q58LsJZKBCRce586Rr4i3AaA9l18E4RphLtdrRxL2FgAcuKelteqI8Lo6IETeSn7OX7+Z8xy9CmLSW72CDwWd+JaXUCqytGKkYXb8y7cD2jMwAWjishtmHbWbJIANAL4Of5MCEwAuhuka/leYWdIJmFnhPwlQNq/114BZw3/sk/EomElp413O84qK57VVcr9ymKfDr/s4Noqu7X+E+bx4LelNwjQWvuAjzW8jf2+L1306J8B1LYNZCeBVdrf0xsB0xx+EmXz4FbhPUBxIwgT7yScH4Bd5XsvCLC/08hOYRvV4H8eKvvv3C5gllu+D+Z7MhemRiT0OT7yTAKX4dURJqaRw3HZqg12aCzvD9xUJ7f7kktDiaUQUhlVr4Ro1L5VKKVGSiGT/AEvIbMsS4d4AEPpJn8l55ydtryfnN4pnYZ58nsKr73s3zMSkDyN/CNKhcjO8d0izYJ5yX+z737NgggiJvtcmwVSa/wSz7Oo/MPjM86vgP9zs8/AeBjgfplJZBHOPvwIzce8BAD9H/qdyr93xPov82zv334/FMMvOrvR9p6Px93335uswjav+YRAJswHPp2E+c352qPs9zOcwH6/7dBq854mcDLP8byWC9QANZg2A9/f9/3Ewn93/hYnm5zYcNAZmZ82zXI7ZCPcGz33wngsAmM2KtsE0rD8EsyyyvzIfDxNG+csw7+Gv+o451gcwDIYUYm2B2JAPOnBuQviGyOMtDTNdl6actmPG4Wdq2pW0vcP/usoCGHPAdeetluW1Bxatbv0dTEsvHKk99ztwsrlD0go/QUVns547iiklN0ihrwt9XRovPLC0yu8EujeCx1F4lLJi64IJUbwR3k9TVTAVj58n3nx+AtMYetbjuL0wP5Je3bbnY/AhinfBrPW/dZDXHob7ng0VMBPjmvvuy46+f6uGiUN/McwPexBRTm6rgmmI3dT334dhej6C/GZ3w1Scbo2s/4R3yOibYYL8tMA0GHJ95Zve9++nRXSfzsfg+3EcD7P88GaY9/VpmHk1OZiG6TtgZum7TYT0E4FTwXxmnob3/LQxMI3IMMu9Pw/TQHswRBqhxNoD8EBD1fMw+zeHIiA8J8GkUkKVJFToWdgO9AE/Mfq1wPdD3yCB7cnyw//hddjhWbV7oa1Q4+lSJXSlJfZ4HbdhWc1G7T3m7X1pUsfe+n2TeQLmx20o5l38Bv5XR6wJmddNMEvZjvUIvCO82QA+AVO5PAbzQ/wTmCfswSp/P0MWxVKJYJW/hnlS9XofOuHeQ9Dv3TBzRTbA3NuVMF3mpw1ybBqm8RFEGbz3j5gEE6TpdpiG24MwsTWWwXsVRCO842IAZh7AAoSPCeHHZhR/TxBXcU8ChIb8MkIsjxLQ96xdWuNrKGHf9hf3qKwsfMRcW07pmOm7/By6vqH2Ea3zjjf5yk0r/IOfxsams0UugWyo4BwO9L41DTN9zZSUWn0RoYY4xB/t8toQOx5Sgf4dZn18dDNiX+9nABbCe+Jhv0aYTVEKVYHBN1Tphpk/EJVfAZgD93j6YXsA7gh5L/ppmE107vN5/D8iugnZu2C68NcHPK8K/sf6g3oEwZ7U/xumi973vi8F+A3M/IChXhr8GrE3ANYvrW7VQn8EwVuMAPCEXSE+5ffgTamzc70lia1K2MFnsmeBRPmo7Z5j5AMkNS6B99hrPt9fv6zWd/ANMwQiOgvJSDl21/qGKt8TMtcum/47aFHoj+s+qeTFLUvESFgB8Eb0AEzXedQBcA7AjP1/HP4rfwA4BPMUHubzcDoG3/ToZwi//FL1pfFhmAmVj0R0vwazDmaeQ5iKpwtmItyPA5zTBhNJL+y8pccBnAmz4uBhl+MGayhthZlT4tnjGdDdAOrhHejnWE/CfK5+G/A8L70wAcTORcyVPzAMGgAAsL6h7nFI9T54d9m9Qmvxs0QFPtCypDbIjw0eu3zq0ZKuzi3CcXx/2FVOK9hqa8uS8Z5j5AO1LK89oLR+H/x1Pb1yaQL47mk7a74S9D6uu6J2G7QKtHe6peXhktFVL7qtNBg0r2U1twJiBYL9aGwVjvP+B5dX+Y3dTcXxZ5iu2y8i/I9QJ4DvwyxFu6vANH4N0+0adKmkAxPn4G0u1/ElmFgNhfT8/Q5mfPkLePVzfn/I++V2LX+GiU9wet89CeqxvnN97446wC8AXAigkBVML8PMxZiLV9fZPwzTuAtiL0xlfS7MkFUY22AmcV6Jwh4uAbOybC7MrqzbQpanF8AqmPkl30REk8TDGlax2Otv31uRHZX5ErS+BnmXWehntBDfWN9QG6olXt+8Odl7qLzaghjvOv0FpZ2dunvXJp/d44OZ39g+yrKdL0HgC3BZfyw0noNUX1jbMP2Xoa5tZev4jIVqIVTeGbnCcXK2KGtvWTr1ZSBY5T/Q4lVt79ZC/wDuM6rT0OJ2yOxN6xpmdoa5thAuBXCvy+vrMfgEpDidCjNBLZ+tCB9yuhTm6a8ewNnwtz7+AEwF9RBMj0JU46W1MLP8L/cox0t9+d4O/3srnAzTLf4xuK99T8PMaL8LZrz72O+GgBn7vhKv77Z+B9yj5l0H4EeD/HsvzIzw1DH5XNJ3L85B/tUOh2F6JX4K060c1gSYwFBXAa4bn2mYSZ73wCyTHGwI4XyYORon4LXxBL4Jf2G0T4OpxM+B2aTJK0jZAZheiCaYz2aU8VgsmAbSR2Fm9ftZBni0rzwPwQy/BXo4GwrDqgHQb25K22Nn7Ho/tD4ZGlXQ6BESu7TQv153ZV2hXeqDmnfblpJEmTVWJuwKRzuJJErgCCsr0z3dlUl90O+4uB/1K1vH56SYr6HPhZlBWwGgQ0D/DRDrT91Z83gqJaL50Got6u/cVtlbVjYm6TglyrJsaOWIrEynM9nDb99bdyjKvBatanu7trBYaJwM6Cqt0SOEbNPARu1k1m345KwoxjapuGyYp+nZMJVxf0V5oO9vP8zOacXe0CgB84N/AoCJMI2Ul2GeTp9CgJ7CPGmfDtMgmAAzue4IzKzyLTC9dYF6FYfAFJiu9ekwa+x7++7H8zCR+qKMBDLQCTANzMkwFd5RmCGGrQD+iKHtwi7HqzsAToKZ9HcEr342/9r3NxQ7NgqYzYFOhFmWOQrmczXwe7IdZvfF4byFNBEREREREREREREREREREREREREREREREREREQ1fwzIOQP+6cmHpk6FFjYI4IoXqEBn1mwdXzCgkUpWnqxqfTnSgKpEu2ydm9JySuXOFKNbaWtQ3awttbcnSiQn5cueR3KOfOT4TNBKfX6lUSm6afkWy1iqzLKfHmbFjRiay9f/HmJvS9uhZHVV2VlUrqbukFO1rr6gZdsEviIhomDUArmzaXtqp7WsFcK0ePAqVEgK/g8b1a5fWho56dVWjTrwsd03RQo3Vtn7NRhQqK7NaZTpzabXn0Wtnp8PmlUpp+edZeyZKR413ctny18S00pZjaedwVvfs27DsxEg25bjgjh3jrKScYEunUknxyvssVULrnOpCCfavvaL6QJgogP0WrNp5piXwGQ1xIY6JkCU0noPQzb3J9E8evXR20FCvRERUJMOmATB/zY45lpLrARzns+SrEuWHr/azW95gFty1ZwpET5W0het+CFJpnbGsPQ9fUdNeaGU57779lcls93S30LwDLqyz86WtOzalzi4oVvS827aU2KPtmZaQniFdtUJPskJuD7qfQr/z7tldXp7L3KEhLoP3Z2mfhv7M+qV1/15IXkREFK1h0QC4qGnn25UWv4T3ns6vpfGrxOjD5wdtBCxq2j4DQk4Ico7KyUOnt63alkqlAnWfz//X9omJXtQpmfV9r0VOpHu701uC9jycd8/u8vJs7nhtOb73DVc5rUaXjt56/6UTAj2d16/umJRF9heAOD3AaRpa37BuWd1NQfIiIqLoxb4bYH3T9qlai7UIWvkDgMAHcl2jbwtyyoV3t1YHrfwBQNpqzB+rr5we5Jx59+2vDFr5A4C2dYldmTy+vllbfs+pb96cHK2zxwWp/M11CXmk98hx9c2tZX7Puarx6UQWueaAlT8ACAhx48LVrcsDnkdERBGLvQGQReLb2n3XKVcaYsVFa3b9nZ9j62/fW2Fn1NRC87ISYvwF9+8Y5yuvZm2VpntmBq38X8kLKO09uM33fVFHK6c7WnntljUoaQuZ6VIz/R6/LzH5SzDbZBZEALctXL2rttDziYgovFgbAAtWth4PrS8Lm45STsrPcenSrmrPDSU9lGaTVYD2rNTTR1qnBH0aP1YiYU2cd9uWEq/jFqzaN9oRqjJMXkKirH5lq+cWl/UrW8driC+GyQtAmYS6PmQaREQUQqwNAEvgI8i/z3UA4uz61R2T3I6Yd9uWEmlZFX5TzMdBprS+eZ/nBDshReBhhmMpKURZScKzUtbq6MSweQGAsuBZ5ozERShkuObYMgMfv7Jpe2kU5SYiouBibQBoIc6JKCkrJ5y5bgeUJkToSqtfT0/aNa36H7aW+Zvx7y2b1J7ltqUd6um/n9bW6FRKu34mBDAvirwAlHcq630RpUVERAHFPAdA10WWklKuaamSMs+udL9KHOWaVnZcLrK8bJVwTWtuaqMddqihn5JZsbmyzavss6O6NhFhWkREFEzckwBHR3cl0vVJWdlWJJUkAGS17TqTwCkpiSwvrRzbdc7B9BmR5QUA6TGl7ukJRDLcAABKiMlRlp2IiPyLuwGwL6qEhFJ73I9QTlR5Sct2DdKjdDayvGBbjlsAohMy+6PLC4DOeZRdI8JofqIzyrITEZF/8TYABF6MKinlkVapYxcUMXAwTtpx3SdgVGdXZPsIaG25lvvOFWfkpNKR7SNw5IRpHvdJt0aVF4Ao0yIiogBibQAI6EciSuroOOG47g1wyFKRxNgHACuZdn0Kbrn6rUehrYiezI96lFvojLAiuTYhE92bzhauvRtCi19Fc11wVFZuiigtIiIKKNYGQCap1wLoDJ2QwM/WNMzsdTvkscunHtVahu8F0JZz2o4Z7t3gQmggG/66ACR7Kg96Xn6m2/MYP2zH9kxHSjwAIILGjfj1QyuqXo6i3EREFFysDYCfXzL9ICC+FzKZHq3lN31drBTtYcucQHa3n+1000dyHWG75nNaHm65ZnKX13EPrThhvwP0+kkzH+FYOZRv8pyT8UBD7RZA3xcmLwDQEKmwaRARUeHingSIydndtwhgY8EJaHxm/dJqX2PJa6+oPmBpWfAkNiET3XN2zNjr59hHr52dRhYdhV+X5XQh53OMXGjhjNopVaKwBkcWyJQ6O1uWLPH1ZC+z6isAQjSmxL+sX1r9h8LPJyKisGJvANy54sysDfujgPhjwFM1BFLrltWu8n+K0Pt3vLjdyQR/WlZZmbVLp2318/Tf78EVMzocWXIgaF5SaZ3IpLdv8hjWGGjDsklHLIhWFDD9UEnRYXpj/F+XBi4CClgRoPGrRMWh64KXkoiIojQstgMGgPmN7aPshPpnDX0FvBsmofaWr2/WVs/Rtlm2z/j5lk4cnZCZtvXOFaKg2f0X3t1abWfUVD/7ECghsyVdh7e1XDPHs+t/MBfcsWOcldQzpC08G3dSaW2hpLVl6bSClmMuXrnzZC3FOgDH+TleACvtisPXBN2+mYiIojdsGgD9Fq3ZcYZQ4loNcSGAY+Pg/wXQzelk+rZHL50dej36BXfsGJesSEzVKjtqsNctJHuVcHavvaJmf9i85je2jxKWU2VLq3KwHQKFY+UclOwrGb1xj9+u+Hyuanw60VFWNc1y1HgI53V7LaicrbTOduZ6su2PXjs7HSavK5u2lx6E/Vmp8Zk8uzoqAI8rpa/fsLzut2HvIxERRWPYNQD6zU1pe/SsjiqZ0zXaUV1aWe3FmjU+77YtJaVjyipslU04GSF0qZ2x9+vuls/X9kR/XRvt8smzRicrShJONmNnRTpbUTGmp2XJpKNuAX8KkUql5JPHX1JRekSUOsmkbSWSObsnmZ7TMe5IkKEMX7QWC5va3gHgbUKgGkp3CYldIqN+8+CKGYXPhSAiIiIiIiIiIiIiIiIiIiIiIiIiIiIiIiIiIiIiInpzGbZxAEaq+tTmZG7mmNGiN5fMlFpSZrK5EqV753TceySVSkW7Np+IiCgPNgCGSH3z3or0ka5qqayKQUMCa8vRWuw/tPOFjk2ps3Nxl5eIiEY2NgCKTov5jdtqrRJ7kp+j+0ICb9uwbNKRuEtOREQjFxsARbZozc7jAD02yDlSJbQSZdvWNYzrjLv8REQ0MsW+HfBIduHdrdVBK38AUDIrlHNoZv0PW8vivgYiIhqZ2AAokrlN20uTjjWl0POlLWR6TLYu7usgIqKRiQ2AIhmdE9MG2/Y3CGlZFQtWPT867mshIqKRhw2AYtBaWLY9JoqkhBg9Nu7LISKikYcNgCKov2NfOYRjRZGWkrnKuK+HiIhGHjYAiqEknYwqKZHTkaVFRETUjw2AIugdZUV2X6UWEtBcrklERJFiA6AIrHQ6skh+VlJmAaHjviYiIhpZ2AAogrFAb1RpZXMyHff1EBHRyMMGQBGsaZjZK3Iikoo7JzOH4r4eIiIaedgAKBLhqP1h01DCVuXl3QfivhYiIhp52AAoklM6pu9RQmbDpGFn9L6WJXMycV8LERGNPGwAFEkqJVRJV8k2qXRBE/iETHSfsqu6Pe7rICKikYkNgCJquWZyl6Wsl4I2ArRK9tjbDm5NpYSK+xqIiGhk4vryIVDfvLdCdTvTHWRKXQ/MAg70gdIx/7OzZckSJ+5yExHRyMUGwFDRWsz/t44JdpcaL2xZMXCjIOFYOaFlZ1dy38uPXX7q0biLSkREIx8bAHHQWtS3IAG0WdsO7sn9ccWZoSYLEhERERERERERERERERERERERERERERERERERERERERERERERERERERERERERERERERERERERERERERERERERERERERERERERERERERERERERERERERERERERERERERERERERERERERERERERERERERERERERERERERERERERERERERERERERERERERERERERERERERERERERERERERERERERERERERERERERERERERERERERERERERHRcPD/AUIl0Y6t0nVJAAAAAElFTkSuQmCC;" vertex="1" parent="1">
          <mxGeometry x="690" y="90" width="122" height="60" as="geometry" />
        </mxCell>
        <mxCell id="494KCF8BVKVMXKI5Pt0m-23" style="edgeStyle=orthogonalEdgeStyle;rounded=0;orthogonalLoop=1;jettySize=auto;html=1;entryX=1;entryY=0.5;entryDx=0;entryDy=0;entryPerimeter=0;exitX=0.5;exitY=1;exitDx=0;exitDy=0;" edge="1" parent="1" source="494KCF8BVKVMXKI5Pt0m-22" target="494KCF8BVKVMXKI5Pt0m-4">
          <mxGeometry relative="1" as="geometry" />
        </mxCell>
        <mxCell id="494KCF8BVKVMXKI5Pt0m-24" value="&lt;b&gt;ETL &lt;/b&gt;- Apache Airflow&lt;div&gt;&lt;b&gt;Database &lt;/b&gt;- PostgreSQL&lt;/div&gt;&lt;div&gt;&lt;b&gt;Web App &lt;/b&gt;- Streamlit&lt;/div&gt;&lt;div&gt;&lt;b&gt;Report &lt;/b&gt;- Metabase&lt;/div&gt;&lt;div&gt;&lt;b&gt;Deployment &lt;/b&gt;- Docker&lt;br&gt;&lt;div&gt;&lt;b&gt;&lt;br&gt;&lt;/b&gt;&lt;/div&gt;&lt;/div&gt;" style="text;html=1;whiteSpace=wrap;overflow=hidden;rounded=0;" vertex="1" parent="1">
          <mxGeometry x="660" y="390" width="180" height="90" as="geometry" />
        </mxCell>
      </root>
    </mxGraphModel>
  </diagram>
</mxfile>
